<?xml version="1.0" encoding="UTF-8" standalone="no"?>
<svg
   xmlns:dc="http://purl.org/dc/elements/1.1/"
   xmlns:cc="http://creativecommons.org/ns#"
   xmlns:rdf="http://www.w3.org/1999/02/22-rdf-syntax-ns#"
   xmlns:svg="http://www.w3.org/2000/svg"
   xmlns="http://www.w3.org/2000/svg"
   xmlns:sodipodi="http://sodipodi.sourceforge.net/DTD/sodipodi-0.dtd"
   xmlns:inkscape="http://www.inkscape.org/namespaces/inkscape"
   fill="#000000"
   viewBox="0 0 32 32"
   width="32px"
   height="32px"
   version="1.1"
   id="svg43"
   sodipodi:docname="logo-icon.svg"
   inkscape:version="0.92.4 (5da689c313, 2019-01-14)">
  <metadata
     id="metadata49">
    <rdf:RDF>
      <cc:Work
         rdf:about="">
        <dc:format>image/svg+xml</dc:format>
        <dc:type
           rdf:resource="http://purl.org/dc/dcmitype/StillImage" />
      </cc:Work>
    </rdf:RDF>
  </metadata>
  <defs
     id="defs47" />
  <sodipodi:namedview
     pagecolor="#ffffff"
     bordercolor="#666666"
     borderopacity="1"
     objecttolerance="10"
     gridtolerance="10"
     guidetolerance="10"
     inkscape:pageopacity="0"
     inkscape:pageshadow="2"
     inkscape:window-width="1920"
     inkscape:window-height="1017"
     id="namedview45"
     showgrid="false"
     inkscape:zoom="20.85965"
     inkscape:cx="19.149558"
     inkscape:cy="15.418196"
     inkscape:window-x="-8"
     inkscape:window-y="-8"
     inkscape:window-maximized="1"
     inkscape:current-layer="svg43" />
  <path
     d="M 5 5 L 5 7 L 13 7 L 13 20.869141 L 17 18.201172 L 21 20.869141 L 21 19 L 21 7 L 25 7 L 25 27 L 27 27 L 27 5 L 21 5 L 13 5 L 5 5 z M 15 7 L 19 7 L 19 17.130859 L 17 15.798828 L 15 17.130859 L 15 7 z M 5 11 L 5 13 L 11 13 L 11 11 L 5 11 z M 5 15 L 5 17 L 11 17 L 11 15 L 5 15 z M 5 19 L 5 21 L 11 21 L 11 19 L 5 19 z M 5 23 L 5 25 L 21 25 L 21 23 L 5 23 z"
     id="path41"
     style="fill:#8bc7bc;fill-opacity:1" />
  <path
     style="stroke-width:0.04793944"
     d="M 25.014329,16.986892 25.002232,6.9795331 23.00076,6.9670223 20.999288,6.9545115 v 6.9277755 c 0,3.810276 -0.01099,6.927775 -0.02441,6.927775 -0.01343,0 -0.903101,-0.586059 -1.977056,-1.302355 -1.073955,-0.716294 -1.97462,-1.302354 -2.001477,-1.302354 -0.02686,0 -0.927648,0.586143 -2.001756,1.30254 l -1.952924,1.302541 -0.01215,-6.91545 -0.01215,-6.9154509 -3.9909585,-0.01226 -3.9909586,-0.01226 V 5.9964991 5.0379857 H 16.013586 26.991719 V 16.016118 26.994251 h -0.982646 -0.982646 z m -6.00286,-9.9719313 c -0.01813,-0.047588 -0.449193,-0.057789 -2.025807,-0.047939 l -2.002774,0.012512 -0.0122,5.0695963 c -0.0083,3.432416 0.0036,5.069596 0.03685,5.069596 0.02698,0 0.463926,-0.276461 0.970993,-0.614358 0.507067,-0.337897 0.945079,-0.628038 0.973361,-0.644757 0.02828,-0.01672 0.502883,0.270483 1.054668,0.638225 l 1.003246,0.668623 0.01235,-5.045523 c 0.0068,-2.775038 0.002,-5.0727265 -0.01068,-5.1059747 z"
     id="path51"
     inkscape:connector-curvature="0" />
  <path
     style="stroke-width:0.04793944"
     d="M 25.026202,17.005982 V 7.0177138 L 24.630701,6.9869259 C 24.413176,6.9699926 23.50712,6.9560088 22.617245,6.9558508 l -1.617957,-2.874e-4 v 6.9272496 c 0,3.809987 -0.01055,6.927249 -0.02344,6.927249 -0.01289,0 -0.910892,-0.591004 -1.995557,-1.313342 l -1.972117,-1.313342 -0.413401,0.266501 c -0.22737,0.146576 -1.119908,0.737742 -1.983417,1.313702 l -1.570017,1.0472 V 13.91467 7.0185598 L 12.242684,6.9870616 C 11.803422,6.9697376 10.002098,6.9555634 8.23974,6.9555634 H 5.0354539 V 5.9967746 5.0379857 H 16.013586 26.991719 V 16.016118 26.994251 H 26.00896 25.026202 Z m -9.024624,-0.51846 c 0.519746,-0.347161 0.967391,-0.631202 0.994767,-0.631202 0.02738,0 0.47502,0.284041 0.994766,0.631202 0.519746,0.347162 0.966968,0.631203 0.993827,0.631203 0.03284,0 0.04883,-1.653992 0.04883,-5.051095 V 7.0165351 L 18.81135,6.9860491 c -0.289439,-0.039672 -2.944696,-0.038999 -3.456934,8.766e-4 l -0.3955,0.030788 V 11.99239 c 0,4.484817 0.0098,5.126335 0.07793,5.126335 0.01085,0 0.444981,-0.284041 0.964727,-0.631203 z"
     id="path53"
     inkscape:connector-curvature="0" />
  <path
     style="stroke-width:0.04793944"
     d="M 25.026202,17.0065 V 7.0187499 l -1.014459,-0.031593 c -0.557951,-0.017376 -1.464007,-0.031593 -2.013456,-0.031593 h -0.998999 v 6.9272501 c 0,3.809986 -0.0106,6.927248 -0.02357,6.927248 -0.01296,0 -0.898022,-0.582464 -1.966802,-1.294364 -1.06878,-0.7119 -1.969624,-1.294335 -2.001876,-1.294299 -0.03225,3.7e-5 -0.932335,0.581896 -2.000186,1.293021 l -1.941547,1.292955 -0.01215,-6.894138 -0.01215,-6.8941398 -1.977341,-0.031703 C 9.9761403,6.9699564 8.1748881,6.9556614 7.0608953,6.9556266 L 5.0354539,6.9555634 V 5.9967746 5.0379857 H 16.013586 26.991719 V 16.016118 26.994251 H 26.00896 25.026202 Z m -8.941698,-0.57467 c 0.474054,-0.31653 0.883937,-0.575078 0.910849,-0.57455 0.02691,5.27e-4 0.479551,0.283861 1.005863,0.62963 0.671447,0.441117 0.967993,0.611262 0.994009,0.570319 0.02039,-0.03209 0.03741,-2.304016 0.03781,-5.048715 L 19.033769,7.018152 18.49445,6.987076 c -0.687559,-0.039618 -1.408895,-0.039603 -2.593005,5.28e-5 l -0.942528,0.031567 v 4.6832362 c 0,2.57578 0.01388,4.847392 0.03084,5.048026 0.03684,0.43587 -0.08945,0.472571 1.094749,-0.318128 z"
     id="path55"
     inkscape:connector-curvature="0" />
  <path
     style="stroke-width:0.04793944"
     d="M 25.026202,16.998877 V 7.0035029 l -0.539319,-8.63e-5 c -0.296626,-4.63e-5 -1.202681,-0.014314 -2.013457,-0.031706 l -1.474138,-0.031619 v 6.9349854 c 0,3.814242 -0.0093,6.934985 -0.02067,6.934985 -0.01137,0 -0.888553,-0.574609 -1.949298,-1.27691 -1.060746,-0.702301 -1.962893,-1.285172 -2.004772,-1.295269 -0.04188,-0.0101 -0.949839,0.564242 -2.01769,1.276311 l -1.941547,1.294671 -0.02397,-6.890696 -0.02397,-6.8906962 -2.349033,-0.02934 C 9.3763704,6.9819954 7.580439,6.9658158 6.6773798,6.9621779 L 5.0354539,6.9555634 V 5.9967746 5.0379857 H 16.013586 26.991719 V 16.016118 26.994251 H 26.00896 25.026202 Z m -8.99248,-0.534968 c 0.503076,-0.333782 0.936256,-0.606694 0.962623,-0.606471 0.02637,2.39e-4 0.466073,0.273317 0.977125,0.606876 0.511052,0.333559 0.944781,0.606472 0.963841,0.606472 0.07991,0 0.0958,-0.884464 0.09612,-5.349802 l 3.41e-4,-4.7026204 -0.733474,-0.028645 c -0.403411,-0.015755 -1.320253,-0.015709 -2.037427,1.007e-4 l -1.303951,0.028748 1.91e-4,4.4148817 c 2e-4,4.484921 0.02294,5.637337 0.111236,5.637337 0.02678,0 0.4603,-0.273094 0.963376,-0.606877 z"
     id="path57"
     inkscape:connector-curvature="0" />
  <path
     style="stroke-width:0.04793944;fill:#8bc7bc;fill-opacity:1"
     d="M 25.026202,16.998877 V 7.0035029 L 24.055428,7.003383 C 23.521502,7.0033207 22.615447,6.989096 22.041971,6.971779 L 20.999288,6.940295 v 6.934885 c 0,3.814185 -0.01003,6.934882 -0.0223,6.934882 -0.01226,0 -0.907688,-0.584423 -1.989833,-1.298717 l -1.967536,-1.298717 -0.203396,0.119399 c -0.111868,0.06567 -1.001588,0.649388 -1.977156,1.297156 L 13.065311,20.80694 13.03982,13.917206 C 13.0258,10.127852 13.009621,7.0220794 13.003866,7.0154877 12.99811,7.008896 12.06038,7.0034734 10.92002,7.0034373 9.779661,7.0034012 7.9891228,6.9891083 6.9410467,6.9716751 L 5.0354539,6.9399785 V 5.9889821 5.0379857 H 16.013586 26.991719 V 16.016118 26.994251 H 26.00896 25.026202 Z m -9.002618,-0.534731 c 0.508651,-0.333652 0.946439,-0.606906 0.972861,-0.607233 0.02642,-3.35e-4 0.45032,0.261722 0.941994,0.582329 0.491675,0.320607 0.925067,0.594861 0.963093,0.609453 0.109395,0.04198 0.132239,-0.949402 0.132239,-5.738785 V 7.0024623 l -2.025441,0.012505 -2.025442,0.012505 6.14e-4,4.9377627 c 3.35e-4,2.71577 0.01584,4.975515 0.03445,5.021657 0.01861,0.04614 0.04441,0.08389 0.05733,0.08389 0.01292,0 0.439656,-0.272988 0.948308,-0.60664 z"
     id="path59"
     inkscape:connector-curvature="0" />
  <path
     style="stroke-width:0.04793944;opacity:0;fill:#8bc7bc;fill-opacity:0"
     d="M 25.026202,16.998877 V 7.0035029 h -1.286744 c -0.707708,0 -1.613763,-0.014155 -2.013456,-0.031455 l -0.726714,-0.031455 v 6.9347341 c 0,3.814104 -0.01227,6.934734 -0.02726,6.934734 -0.015,0 -0.910424,-0.584598 -1.98984,-1.299106 l -1.96258,-1.299106 -0.347208,0.217319 c -0.190964,0.119526 -1.080681,0.703065 -1.977148,1.296754 l -1.629941,1.079435 -0.02905,-6.002063 c -0.01598,-3.301134 -0.03216,-6.4065511 -0.03596,-6.9009266 l -0.0069,-0.8988645 -2.648654,-9.3e-5 C 8.8879873,7.0033571 7.0974491,6.9891031 6.3657734,6.9717308 L 5.0354539,6.9401449 V 5.9890653 5.0379857 H 16.013586 26.991719 V 16.016118 26.994251 H 26.00896 25.026202 Z m -8.954286,-0.567112 c 0.455702,-0.297811 0.851688,-0.555217 0.879968,-0.572012 0.02828,-0.0168 0.4807,0.248346 1.005377,0.589202 0.653397,0.42448 0.969489,0.604211 1.00325,0.570451 0.03291,-0.0329 0.05499,-1.705764 0.06645,-5.032596 l 0.01716,-4.9833071 h -2.014017 -2.014017 l -0.03559,0.515349 c -0.03754,0.5436181 0.01501,9.4468311 0.05615,9.5134081 0.03205,0.05185 0.07672,0.02594 1.035271,-0.600495 z"
     id="path61"
     inkscape:connector-curvature="0" />
  <path
     style="fill:none;stroke-width:0.04793944"
     d="M 24.99817,16.998877 V 7.0035029 h -1.478665 c -0.813266,0 -1.708535,-0.014065 -1.989487,-0.031255 l -0.510822,-0.031255 -0.0065,6.3712461 c -0.0036,3.504186 -0.01975,6.625712 -0.03595,6.936726 l -0.02946,0.56548 -1.797729,-1.189948 c -0.988751,-0.654471 -1.875072,-1.237484 -1.969604,-1.295585 l -0.171875,-0.105637 -0.403398,0.253992 c -0.221869,0.139696 -1.091964,0.713007 -1.933545,1.274025 -0.84158,0.561018 -1.558874,1.031057 -1.593986,1.04453 -0.05298,0.02033 -0.06384,-1.150876 -0.06384,-6.88391 V 7.0035029 H 9.9528943 c -1.6832284,0 -3.484553,-0.014205 -4.0029435,-0.031566 L 5.0074226,6.9403704 V 5.9891781 5.0379857 H 16.009525 27.011627 V 16.016118 26.994251 H 26.004899 24.99817 Z m -8.957334,-0.55136 0.956882,-0.623268 0.928358,0.599299 c 0.510597,0.329614 0.948919,0.599298 0.974049,0.599298 0.02513,0 0.05917,-0.06741 0.07565,-0.14981 0.01648,-0.0824 0.02996,-2.336985 0.02996,-5.010198 V 7.0024509 l -2.001472,0.012511 -2.001472,0.012511 -0.01471,4.3385191 c -0.0134,3.952276 0.0088,5.704794 0.07226,5.704794 0.01298,0 0.454207,-0.280471 0.980492,-0.623269 z"
     id="path69"
     inkscape:connector-curvature="0" />
  <path
     style="fill:none;stroke-width:0.04793944"
     d="M 24.99817,16.998877 V 7.0035029 h -1.478665 c -0.813266,0 -1.708535,-0.014065 -1.989487,-0.031255 l -0.510822,-0.031255 -0.0065,6.3712461 c -0.0036,3.504186 -0.01975,6.625712 -0.03595,6.936726 l -0.02946,0.56548 -1.797729,-1.189948 c -0.988751,-0.654471 -1.875072,-1.237484 -1.969604,-1.295585 l -0.171875,-0.105637 -0.403398,0.253992 c -0.221869,0.139696 -1.091964,0.713007 -1.933545,1.274025 -0.84158,0.561018 -1.558874,1.031057 -1.593986,1.04453 -0.05298,0.02033 -0.06384,-1.150876 -0.06384,-6.88391 V 7.0035029 H 9.9528943 c -1.6832284,0 -3.484553,-0.014205 -4.0029435,-0.031566 L 5.0074226,6.9403704 V 5.9891781 5.0379857 H 16.009525 27.011627 V 16.016118 26.994251 H 26.004899 24.99817 Z m -8.957334,-0.55136 0.956882,-0.623268 0.928358,0.599299 c 0.510597,0.329614 0.948919,0.599298 0.974049,0.599298 0.02513,0 0.05917,-0.06741 0.07565,-0.14981 0.01648,-0.0824 0.02996,-2.336985 0.02996,-5.010198 V 7.0024509 l -2.001472,0.012511 -2.001472,0.012511 -0.01471,4.3385191 c -0.0134,3.952276 0.0088,5.704794 0.07226,5.704794 0.01298,0 0.454207,-0.280471 0.980492,-0.623269 z"
     id="path71"
     inkscape:connector-curvature="0" />
  <path
     style="fill:none;stroke-width:0.04793944"
     d="M 24.99817,16.998877 V 7.0035029 h -1.478665 c -0.813266,0 -1.708535,-0.014065 -1.989487,-0.031255 l -0.510822,-0.031255 -0.0065,6.3712461 c -0.0036,3.504186 -0.01975,6.625712 -0.03595,6.936726 l -0.02946,0.56548 -1.797729,-1.189948 c -0.988751,-0.654471 -1.875072,-1.237484 -1.969604,-1.295585 l -0.171875,-0.105637 -0.403398,0.253992 c -0.221869,0.139696 -1.091964,0.713007 -1.933545,1.274025 -0.84158,0.561018 -1.558874,1.031057 -1.593986,1.04453 -0.05298,0.02033 -0.06384,-1.150876 -0.06384,-6.88391 V 7.0035029 H 9.9528943 c -1.6832284,0 -3.484553,-0.014205 -4.0029435,-0.031566 L 5.0074226,6.9403704 V 5.9891781 5.0379857 H 16.009525 27.011627 V 16.016118 26.994251 H 26.004899 24.99817 Z m -8.957334,-0.55136 0.956882,-0.623268 0.928358,0.599299 c 0.510597,0.329614 0.948919,0.599298 0.974049,0.599298 0.02513,0 0.05917,-0.06741 0.07565,-0.14981 0.01648,-0.0824 0.02996,-2.336985 0.02996,-5.010198 V 7.0024509 l -2.001472,0.012511 -2.001472,0.012511 -0.01471,4.3385191 c -0.0134,3.952276 0.0088,5.704794 0.07226,5.704794 0.01298,0 0.454207,-0.280471 0.980492,-0.623269 z"
     id="path73"
     inkscape:connector-curvature="0" />
  <path
     style="fill:none;stroke-width:0.04793944"
     d="M 24.99817,16.998877 V 7.0035029 h -1.478665 c -0.813266,0 -1.708535,-0.014065 -1.989487,-0.031255 l -0.510822,-0.031255 -0.0065,6.3712461 c -0.0036,3.504186 -0.01975,6.625712 -0.03595,6.936726 l -0.02946,0.56548 -1.797729,-1.189948 c -0.988751,-0.654471 -1.875072,-1.237484 -1.969604,-1.295585 l -0.171875,-0.105637 -0.403398,0.253992 c -0.221869,0.139696 -1.091964,0.713007 -1.933545,1.274025 -0.84158,0.561018 -1.558874,1.031057 -1.593986,1.04453 -0.05298,0.02033 -0.06384,-1.150876 -0.06384,-6.88391 V 7.0035029 H 9.9528943 c -1.6832284,0 -3.484553,-0.014205 -4.0029435,-0.031566 L 5.0074226,6.9403704 V 5.9891781 5.0379857 H 16.009525 27.011627 V 16.016118 26.994251 H 26.004899 24.99817 Z m -8.957334,-0.55136 0.956882,-0.623268 0.928358,0.599299 c 0.510597,0.329614 0.948919,0.599298 0.974049,0.599298 0.02513,0 0.05917,-0.06741 0.07565,-0.14981 0.01648,-0.0824 0.02996,-2.336985 0.02996,-5.010198 V 7.0024509 l -2.001472,0.012511 -2.001472,0.012511 -0.01471,4.3385191 c -0.0134,3.952276 0.0088,5.704794 0.07226,5.704794 0.01298,0 0.454207,-0.280471 0.980492,-0.623269 z"
     id="path75"
     inkscape:connector-curvature="0" />
  <path
     style="fill:none;stroke-width:0.04793944"
     d="M 24.99817,16.998877 V 7.0035029 h -1.478665 c -0.813266,0 -1.708535,-0.014065 -1.989487,-0.031255 l -0.510822,-0.031255 -0.0065,6.3712461 c -0.0036,3.504186 -0.01975,6.625712 -0.03595,6.936726 l -0.02946,0.56548 -1.797729,-1.189948 c -0.988751,-0.654471 -1.875072,-1.237484 -1.969604,-1.295585 l -0.171875,-0.105637 -0.403398,0.253992 c -0.221869,0.139696 -1.091964,0.713007 -1.933545,1.274025 -0.84158,0.561018 -1.558874,1.031057 -1.593986,1.04453 -0.05298,0.02033 -0.06384,-1.150876 -0.06384,-6.88391 V 7.0035029 H 9.9528943 c -1.6832284,0 -3.484553,-0.014205 -4.0029435,-0.031566 L 5.0074226,6.9403704 V 5.9891781 5.0379857 H 16.009525 27.011627 V 16.016118 26.994251 H 26.004899 24.99817 Z m -8.957334,-0.55136 0.956882,-0.623268 0.928358,0.599299 c 0.510597,0.329614 0.948919,0.599298 0.974049,0.599298 0.02513,0 0.05917,-0.06741 0.07565,-0.14981 0.01648,-0.0824 0.02996,-2.336985 0.02996,-5.010198 V 7.0024509 l -2.001472,0.012511 -2.001472,0.012511 -0.01471,4.3385191 c -0.0134,3.952276 0.0088,5.704794 0.07226,5.704794 0.01298,0 0.454207,-0.280471 0.980492,-0.623269 z"
     id="path77"
     inkscape:connector-curvature="0" />
  <path
     style="opacity:0;fill:#8bc7bc;fill-opacity:0;stroke-width:0.04793944"
     d="M 25.02214,16.998877 V 7.0035029 h -1.286743 c -0.707709,0 -1.613764,-0.014155 -2.013457,-0.031455 l -0.726713,-0.031455 v 6.9347341 c 0,3.814104 -0.0097,6.934734 -0.02159,6.934734 -0.01187,0 -0.907397,-0.584538 -1.990052,-1.298974 l -1.968463,-1.298975 -0.346996,0.218398 c -0.190848,0.120118 -1.080469,0.703439 -1.976937,1.296268 l -1.629941,1.077871 -0.02671,-6.888589 C 13.01984,10.127338 13.00366,7.0220794 12.998579,7.0154877 12.993498,7.008896 11.797445,7.003461 10.340686,7.0034099 8.8839258,7.0033587 7.0933876,6.9891031 6.3617118,6.9717308 L 5.0313923,6.9401449 V 5.9890653 5.0379857 H 16.009525 26.987657 V 16.016118 26.994251 H 26.004899 25.02214 Z m -8.945824,-0.570819 c 0.451049,-0.294869 0.843748,-0.550559 0.872666,-0.5682 0.02892,-0.01764 0.481589,0.246878 1.005938,0.58782 0.645724,0.419862 0.969086,0.604176 1.00209,0.571183 0.03218,-0.03217 0.05405,-1.740689 0.0644,-5.032034 l 0.01567,-4.9833241 h -2.01714 -2.017144 v 5.0016821 c 0,2.750925 0.01362,5.015304 0.03027,5.031955 0.04138,0.04138 0.105676,0.0038 1.043247,-0.609082 z"
     id="path4587"
     inkscape:connector-curvature="0" />
  <path
     style="opacity:0;fill:#8bc7bc;fill-opacity:0;stroke-width:0.04793944"
     d="M 25.02214,16.998877 V 7.0035029 h -1.286743 c -0.707709,0 -1.613764,-0.014155 -2.013457,-0.031455 l -0.726713,-0.031455 v 6.9347341 c 0,3.814104 -0.0097,6.934734 -0.02159,6.934734 -0.01187,0 -0.907397,-0.584538 -1.990052,-1.298974 l -1.968463,-1.298975 -0.346996,0.218398 c -0.190848,0.120118 -1.080469,0.703439 -1.976937,1.296268 l -1.629941,1.077871 -0.02671,-6.888589 C 13.01984,10.127338 13.00366,7.0220794 12.998579,7.0154877 12.993498,7.008896 11.797445,7.003461 10.340686,7.0034099 8.8839258,7.0033587 7.0933876,6.9891031 6.3617118,6.9717308 L 5.0313923,6.9401449 V 5.9890653 5.0379857 H 16.009525 26.987657 V 16.016118 26.994251 H 26.004899 25.02214 Z m -8.945824,-0.570819 c 0.451049,-0.294869 0.843748,-0.550559 0.872666,-0.5682 0.02892,-0.01764 0.481589,0.246878 1.005938,0.58782 0.645724,0.419862 0.969086,0.604176 1.00209,0.571183 0.03218,-0.03217 0.05405,-1.740689 0.0644,-5.032034 l 0.01567,-4.9833241 h -2.01714 -2.017144 v 5.0016821 c 0,2.750925 0.01362,5.015304 0.03027,5.031955 0.04138,0.04138 0.105676,0.0038 1.043247,-0.609082 z"
     id="path4589"
     inkscape:connector-curvature="0" />
  <path
     style="opacity:0;fill:#8bc7bc;fill-opacity:0;stroke-width:0.04793944"
     d="M 25.02214,16.998877 V 7.0035029 h -1.286743 c -0.707709,0 -1.613764,-0.014155 -2.013457,-0.031455 l -0.726713,-0.031455 v 6.9347341 c 0,3.814104 -0.0097,6.934734 -0.02159,6.934734 -0.01187,0 -0.907397,-0.584538 -1.990052,-1.298974 l -1.968463,-1.298975 -0.346996,0.218398 c -0.190848,0.120118 -1.080469,0.703439 -1.976937,1.296268 l -1.629941,1.077871 -0.02671,-6.888589 C 13.01984,10.127338 13.00366,7.0220794 12.998579,7.0154877 12.993498,7.008896 11.797445,7.003461 10.340686,7.0034099 8.8839258,7.0033587 7.0933876,6.9891031 6.3617118,6.9717308 L 5.0313923,6.9401449 V 5.9890653 5.0379857 H 16.009525 26.987657 V 16.016118 26.994251 H 26.004899 25.02214 Z m -8.945824,-0.570819 c 0.451049,-0.294869 0.843748,-0.550559 0.872666,-0.5682 0.02892,-0.01764 0.481589,0.246878 1.005938,0.58782 0.645724,0.419862 0.969086,0.604176 1.00209,0.571183 0.03218,-0.03217 0.05405,-1.740689 0.0644,-5.032034 l 0.01567,-4.9833241 h -2.01714 -2.017144 v 5.0016821 c 0,2.750925 0.01362,5.015304 0.03027,5.031955 0.04138,0.04138 0.105676,0.0038 1.043247,-0.609082 z"
     id="path4591"
     inkscape:connector-curvature="0" />
  <path
     style="opacity:0;fill:#8bc7bc;fill-opacity:1;stroke-width:0.04793944"
     d="M 25.02214,16.998877 V 7.0035029 h -1.286743 c -0.707709,0 -1.613764,-0.014155 -2.013457,-0.031455 l -0.726713,-0.031455 v 6.9347341 c 0,3.814104 -0.0097,6.934734 -0.02159,6.934734 -0.01187,0 -0.907397,-0.584538 -1.990052,-1.298974 l -1.968463,-1.298975 -0.346996,0.218398 c -0.190848,0.120118 -1.080469,0.703439 -1.976937,1.296268 l -1.629941,1.077871 -0.02671,-6.888589 C 13.01984,10.127338 13.00366,7.0220794 12.998579,7.0154877 12.993498,7.008896 11.797445,7.003461 10.340686,7.0034099 8.8839258,7.0033587 7.0933876,6.9891031 6.3617118,6.9717308 L 5.0313923,6.9401449 V 5.9890653 5.0379857 H 16.009525 26.987657 V 16.016118 26.994251 H 26.004899 25.02214 Z m -8.945824,-0.570819 c 0.451049,-0.294869 0.843748,-0.550559 0.872666,-0.5682 0.02892,-0.01764 0.481589,0.246878 1.005938,0.58782 0.645724,0.419862 0.969086,0.604176 1.00209,0.571183 0.03218,-0.03217 0.05405,-1.740689 0.0644,-5.032034 l 0.01567,-4.9833241 h -2.01714 -2.017144 v 5.0016821 c 0,2.750925 0.01362,5.015304 0.03027,5.031955 0.04138,0.04138 0.105676,0.0038 1.043247,-0.609082 z"
     id="path4593"
     inkscape:connector-curvature="0" />
  <path
     style="opacity:0;fill:#8bc7bc;fill-opacity:1;stroke-width:0.04793944"
     d="M 25.02214,16.998877 V 7.0035029 h -1.286743 c -0.707709,0 -1.613764,-0.014155 -2.013457,-0.031455 l -0.726713,-0.031455 v 6.9347341 c 0,3.814104 -0.0097,6.934734 -0.02159,6.934734 -0.01187,0 -0.907397,-0.584538 -1.990052,-1.298974 l -1.968463,-1.298975 -0.346996,0.218398 c -0.190848,0.120118 -1.080469,0.703439 -1.976937,1.296268 l -1.629941,1.077871 -0.02671,-6.888589 C 13.01984,10.127338 13.00366,7.0220794 12.998579,7.0154877 12.993498,7.008896 11.797445,7.003461 10.340686,7.0034099 8.8839258,7.0033587 7.0933876,6.9891031 6.3617118,6.9717308 L 5.0313923,6.9401449 V 5.9890653 5.0379857 H 16.009525 26.987657 V 16.016118 26.994251 H 26.004899 25.02214 Z m -8.945824,-0.570819 c 0.451049,-0.294869 0.843748,-0.550559 0.872666,-0.5682 0.02892,-0.01764 0.481589,0.246878 1.005938,0.58782 0.645724,0.419862 0.969086,0.604176 1.00209,0.571183 0.03218,-0.03217 0.05405,-1.740689 0.0644,-5.032034 l 0.01567,-4.9833241 h -2.01714 -2.017144 v 5.0016821 c 0,2.750925 0.01362,5.015304 0.03027,5.031955 0.04138,0.04138 0.105676,0.0038 1.043247,-0.609082 z"
     id="path4605"
     inkscape:connector-curvature="0" />
  <path
     style="opacity:0;fill:#8bc7bc;fill-opacity:1;stroke-width:0.04793944"
     d="M 25.02214,16.998877 V 7.0035029 h -1.286743 c -0.707709,0 -1.613764,-0.014155 -2.013457,-0.031455 l -0.726713,-0.031455 v 6.9347341 c 0,3.814104 -0.0097,6.934734 -0.02159,6.934734 -0.01187,0 -0.907397,-0.584538 -1.990052,-1.298974 l -1.968463,-1.298975 -0.346996,0.218398 c -0.190848,0.120118 -1.080469,0.703439 -1.976937,1.296268 l -1.629941,1.077871 -0.02671,-6.888589 C 13.01984,10.127338 13.00366,7.0220794 12.998579,7.0154877 12.993498,7.008896 11.797445,7.003461 10.340686,7.0034099 8.8839258,7.0033587 7.0933876,6.9891031 6.3617118,6.9717308 L 5.0313923,6.9401449 V 5.9890653 5.0379857 H 16.009525 26.987657 V 16.016118 26.994251 H 26.004899 25.02214 Z m -8.945824,-0.570819 c 0.451049,-0.294869 0.843748,-0.550559 0.872666,-0.5682 0.02892,-0.01764 0.481589,0.246878 1.005938,0.58782 0.645724,0.419862 0.969086,0.604176 1.00209,0.571183 0.03218,-0.03217 0.05405,-1.740689 0.0644,-5.032034 l 0.01567,-4.9833241 h -2.01714 -2.017144 v 5.0016821 c 0,2.750925 0.01362,5.015304 0.03027,5.031955 0.04138,0.04138 0.105676,0.0038 1.043247,-0.609082 z"
     id="path4607"
     inkscape:connector-curvature="0" />
  <path
     style="opacity:0;fill:#8bc7bc;fill-opacity:1;stroke-width:0.04793944"
     d="m 25.02214,15.03336 v 9.995374 h -1.286743 c -0.707709,0 -1.613764,0.01415 -2.013457,0.03146 l -0.726713,0.03145 V 18.15691 c 0,-3.814104 -0.0097,-6.934734 -0.02159,-6.934734 -0.01187,0 -0.907397,0.584538 -1.990052,1.298974 l -1.968463,1.298975 -0.346996,-0.218398 c -0.190848,-0.120118 -1.080469,-0.703439 -1.976937,-1.296268 l -1.629941,-1.077871 -0.02671,6.888589 c -0.0147,3.788722 -0.03088,6.89398 -0.03596,6.900572 -0.0051,0.0066 -1.201134,0.01203 -2.657893,0.01208 -1.4567602,5.1e-5 -3.2472984,0.01431 -3.9789742,0.03168 l -1.3303195,0.03159 v 0.951079 0.95108 H 16.009525 26.987657 V 16.016119 5.0379857 H 26.004899 25.02214 Z m -8.945824,0.570819 c 0.451049,0.294869 0.843748,0.550559 0.872666,0.5682 0.02892,0.01764 0.481589,-0.246878 1.005938,-0.58782 0.645724,-0.419862 0.969086,-0.604176 1.00209,-0.571183 0.03218,0.03217 0.05405,1.740689 0.0644,5.032034 l 0.01567,4.983324 h -2.01714 -2.017144 v -5.001682 c 0,-2.750925 0.01362,-5.015304 0.03027,-5.031955 0.04138,-0.04138 0.105676,-0.0038 1.043247,0.609082 z"
     id="path4609"
     inkscape:connector-curvature="0" />
  <path
     style="opacity:0;fill:#8bc7bc;fill-opacity:1;stroke-width:0.04793944"
     d="M 25.02214,16.998877 V 7.0035029 h -1.286743 c -0.707709,0 -1.613764,-0.014155 -2.013457,-0.031455 l -0.726713,-0.031455 v 6.9347341 c 0,3.814104 -0.0097,6.934734 -0.02159,6.934734 -0.01187,0 -0.907397,-0.584538 -1.990052,-1.298974 l -1.968463,-1.298975 -0.346996,0.218398 c -0.190848,0.120118 -1.080469,0.703439 -1.976937,1.296268 l -1.629941,1.077871 -0.02671,-6.888589 C 13.01984,10.127338 13.00366,7.0220794 12.998579,7.0154877 12.993498,7.008896 11.797445,7.003461 10.340686,7.0034099 8.8839258,7.0033587 7.0933876,6.9891031 6.3617118,6.9717308 L 5.0313923,6.9401449 V 5.9890653 5.0379857 H 16.009525 26.987657 V 16.016118 26.994251 H 26.004899 25.02214 Z m -8.945824,-0.570819 c 0.451049,-0.294869 0.843748,-0.550559 0.872666,-0.5682 0.02892,-0.01764 0.481589,0.246878 1.005938,0.58782 0.645724,0.419862 0.969086,0.604176 1.00209,0.571183 0.03218,-0.03217 0.05405,-1.740689 0.0644,-5.032034 l 0.01567,-4.9833241 h -2.01714 -2.017144 v 5.0016821 c 0,2.750925 0.01362,5.015304 0.03027,5.031955 0.04138,0.04138 0.105676,0.0038 1.043247,-0.609082 z"
     id="path4611"
     inkscape:connector-curvature="0" />
</svg>
